<svg width="512" height="512" viewBox="0 0 512 512" fill="none" xmlns="http://www.w3.org/2000/svg">
<rect x="16" y="16" width="480" height="480" rx="48" fill="#323330"/>
<path d="M48.7717 259.08V244.165C59.9743 244.165 67.7963 241.878 72.2376 237.304C76.6789 232.664 78.8995 225.008 78.8995 214.335V185.798C78.8995 175.656 80.0264 167.138 82.2802 160.244C84.6003 153.284 88.1135 147.716 92.82 143.54C97.5264 139.364 103.492 136.348 110.718 134.491C117.943 132.635 126.461 131.707 136.272 131.707V155.273C128.582 155.273 122.583 156.4 118.275 158.653C113.966 160.907 110.95 164.42 109.226 169.193C107.569 173.9 106.74 179.932 106.74 187.29V223.483C106.74 228.587 105.978 233.327 104.453 237.702C102.929 242.01 100.112 245.756 96.0018 248.938C91.8919 252.119 86.0255 254.605 78.4023 256.395C70.7792 258.185 60.9023 259.08 48.7717 259.08ZM136.272 385.358C126.461 385.358 117.943 384.43 110.718 382.574C103.492 380.718 97.5264 377.702 92.82 373.526C88.1135 369.349 84.6003 363.781 82.2802 356.821C80.0264 349.927 78.8995 341.409 78.8995 331.267V302.631C78.8995 292.025 76.6789 284.402 72.2376 279.761C67.7963 275.121 59.9743 272.801 48.7717 272.801V257.986C60.9023 257.986 70.7792 258.881 78.4023 260.67C86.0255 262.394 91.8919 264.88 96.0018 268.128C100.112 271.31 102.929 275.088 104.453 279.463C105.978 283.772 106.74 288.478 106.74 293.582V329.776C106.74 337.067 107.569 343.066 109.226 347.773C110.95 352.545 113.966 356.059 118.275 358.312C122.583 360.633 128.582 361.793 136.272 361.793V385.358ZM48.7717 272.801V244.165H76.3143V272.801H48.7717ZM463.203 257.986V272.801C452.001 272.801 444.179 275.121 439.738 279.761C435.296 284.402 433.076 292.025 433.076 302.631V331.267C433.076 341.409 431.916 349.927 429.596 356.821C427.342 363.781 423.862 369.349 419.155 373.526C414.449 377.702 408.483 380.718 401.257 382.574C394.032 384.43 385.514 385.358 375.703 385.358V361.793C383.393 361.793 389.392 360.633 393.701 358.312C398.009 356.059 400.992 352.545 402.65 347.773C404.373 343.066 405.235 337.067 405.235 329.776V293.582C405.235 288.478 405.997 283.772 407.522 279.463C409.046 275.088 411.864 271.31 415.973 268.128C420.083 264.88 425.95 262.394 433.573 260.67C441.196 258.881 451.073 257.986 463.203 257.986ZM375.703 131.707C385.514 131.707 394.032 132.635 401.257 134.491C408.483 136.348 414.449 139.364 419.155 143.54C423.862 147.716 427.342 153.284 429.596 160.244C431.916 167.138 433.076 175.656 433.076 185.798V214.335C433.076 225.008 435.296 232.664 439.738 237.304C444.179 241.878 452.001 244.165 463.203 244.165V259.08C451.073 259.08 441.196 258.185 433.573 256.395C425.95 254.605 420.083 252.119 415.973 248.938C411.864 245.756 409.046 242.01 407.522 237.702C405.997 233.327 405.235 228.587 405.235 223.483V187.29C405.235 179.932 404.373 173.9 402.65 169.193C400.992 164.42 398.009 160.907 393.701 158.653C389.392 156.4 383.393 155.273 375.703 155.273V131.707ZM463.203 244.165V272.801H435.661V244.165H463.203Z" fill="#F0DB4F"/>
<path d="M218.125 196.392L195.77 223.712L184.594 206.327L218.125 196.392Z" fill="#F7A41D"/>
<path d="M218.125 196.392L201.981 210.053L195.771 223.712H188.32V287.046H199.497L185.837 293.255L175.902 314.366H161V196.392H218.125Z" fill="#F7A41D"/>
<path d="M199.497 287.046L175.902 314.366L165.967 300.706L199.497 287.046ZM230.543 196.392L237.995 213.778L206.947 223.712L230.543 196.392Z" fill="#F7A41D"/>
<path d="M230.543 196.392H298.843V223.712H206.947L230.543 208.812V196.392Z" fill="#F7A41D"/>
<path d="M305.053 287.046L281.457 314.366L272.765 298.223L305.053 287.046Z" fill="#F7A41D"/>
<path d="M305.053 287.046L285.183 298.223L281.457 314.366H213.156V287.046H305.053Z" fill="#F7A41D"/>
<path d="M347.274 169.072L225.575 314.366L164.726 342.928L286.425 196.392L347.274 169.072ZM336.097 196.392L334.856 218.747L312.503 224.954L336.097 196.392Z" fill="#F7A41D"/>
<path d="M351 196.392V314.366H292.634L310.019 299.464L316.229 287.046H323.68V224.954H312.503L324.921 213.777L336.098 196.392H351Z" fill="#F7A41D"/>
<path d="M316.229 287.046L322.438 305.675L292.634 314.366L316.229 287.046Z" fill="#F7A41D"/>
</svg>
